<svg xmlns="http://www.w3.org/2000/svg" width="97" height="97" viewBox="0 0 97 97">
  <g id="icon-www" transform="translate(22.749 33.329)">
    <path id="Tracé_1294" data-name="Tracé 1294" d="M43.383,15.64H48.2A3.32,3.32,0,0,1,51.5,18.951V32.916a3.3,3.3,0,0,1-.972,2.335,1.331,1.331,0,0,1-.142.126,3.293,3.293,0,0,1-2.192.847c-5.7.008-44.819.063-44.888,0A3.313,3.313,0,0,1,0,32.916V18.951a3.312,3.312,0,0,1,.968-2.339c.046-.046.092-.088.143-.13a3.284,3.284,0,0,1,2.2-.842Z" transform="translate(0 10)" fill="#746456" fill-rule="evenodd"/>
    <path id="Tracé_1295" data-name="Tracé 1295" d="M5.787,19.92H50.671a1.528,1.528,0,0,1,1.517,1.517V35.4a1.533,1.533,0,0,1-1.517,1.517H5.787A1.528,1.528,0,0,1,4.27,35.4V21.437A1.52,1.52,0,0,1,5.787,19.92Z" transform="translate(-2.48 7.514)" fill="#fff" fill-rule="evenodd"/>
    <path id="Tracé_1300" data-name="Tracé 1300" d="M13.28,30.22h2.733l.985,5.2,1.442-5.2h2.712l1.45,5.21.989-5.21h2.72l-2.054,9.321H21.432L19.8,33.674l-1.626,5.868H15.35L13.28,30.22Zm13.668,0H29.68l.985,5.2,1.442-5.2h2.712l1.45,5.21.989-5.21h2.72l-2.054,9.321H35.1l-1.635-5.868-1.626,5.868H29.018l-2.07-9.321Zm13.672,0h2.733l.981,5.2,1.442-5.2h2.712l1.45,5.21.989-5.21h2.72l-2.054,9.321H48.767l-1.635-5.868-1.626,5.868H42.686L40.619,30.22Z" transform="translate(-7.714 1.531)" fill="#746456"/>
    <rect id="Rectangle_121" data-name="Rectangle 121" width="97" height="97" transform="translate(-22.749 -33.329)" fill="none"/>
  </g>
</svg>
